<?xml version="1.0" encoding="utf-8"?>
<svg version="1.1" xmlns="http://www.w3.org/2000/svg" xmlns:xlink="http://www.w3.org/1999/xlink" x="0px" y="0px"
	 viewBox="0 0 256 256" style="enable-background:new 0 0 256 256;" xml:space="preserve">
<style type="text/css">
	.st0{fill:#64CCB1;}
	.st1{fill:#FFFFFF;}
	.st2{opacity:0.3;fill:#64CCB1;}
</style>
<rect y="0" class="st0" width="256" height="256"/>
<title>EXT:masi</title>
<g>
	<path class="st1" d="M191.4,228.6H64.6c-9.5,0-17.1-7.7-17.1-17.1v-167c0-9.5,7.7-17.1,17.1-17.1h83.5l60.4,60.4v123.8
		C208.5,221,200.8,228.6,191.4,228.6z"/>
	<polygon class="st2" points="208.5,87.7 148.1,27.4 148.1,87.7 	"/>
	<path class="st0" d="M94.2,110.6c7.1-7.1,18.7-7.1,25.9,0l16.7,16.7l7.9-7.9L128,102.6c-11.5-11.5-30.2-11.5-41.7,0
		s-11.5,30.2,0,41.7L103,161l7.9-7.9l-16.7-16.7C87.1,129.3,87.1,117.7,94.2,110.6z M107.2,131.8l33.4,33.4l8.3-8.3l-33.4-33.4
		L107.2,131.8z M169.7,144.3L153,127.7l-7.9,7.9l16.7,16.7c7.1,7.1,7.1,18.7,0,25.9s-18.7,7.1-25.9,0l-16.7-16.7l-7.9,7.9L128,186
		c11.5,11.5,30.2,11.5,41.7,0C181.2,174.5,181.2,155.8,169.7,144.3z"/>
</g>
</svg>
